<svg width="129" height="21" viewBox="0 0 129 21" fill="none" xmlns="http://www.w3.org/2000/svg">
<path d="M12.4 0.96V15H8.98V9.22H3.66V15H0.24V0.96H3.66V6.46H8.98V0.96H12.4ZM25.3889 9.24C25.3889 9.56 25.3689 9.89333 25.3289 10.24H17.5889C17.6422 10.9333 17.8622 11.4667 18.2489 11.84C18.6489 12.2 19.1356 12.38 19.7089 12.38C20.5622 12.38 21.1556 12.02 21.4889 11.3H25.1289C24.9422 12.0333 24.6022 12.6933 24.1089 13.28C23.6289 13.8667 23.0222 14.3267 22.2889 14.66C21.5556 14.9933 20.7356 15.16 19.8289 15.16C18.7356 15.16 17.7622 14.9267 16.9089 14.46C16.0556 13.9933 15.3889 13.3267 14.9089 12.46C14.4289 11.5933 14.1889 10.58 14.1889 9.42C14.1889 8.26 14.4222 7.24667 14.8889 6.38C15.3689 5.51333 16.0356 4.84667 16.8889 4.38C17.7422 3.91333 18.7222 3.68 19.8289 3.68C20.9089 3.68 21.8689 3.90667 22.7089 4.36C23.5489 4.81333 24.2022 5.46 24.6689 6.3C25.1489 7.14 25.3889 8.12 25.3889 9.24ZM21.8889 8.34C21.8889 7.75333 21.6889 7.28667 21.2889 6.94C20.8889 6.59333 20.3889 6.42 19.7889 6.42C19.2156 6.42 18.7289 6.58667 18.3289 6.92C17.9422 7.25333 17.7022 7.72667 17.6089 8.34H21.8889ZM26.5131 9.4C26.5131 8.25333 26.7265 7.24667 27.1531 6.38C27.5931 5.51333 28.1865 4.84667 28.9331 4.38C29.6798 3.91333 30.5131 3.68 31.4331 3.68C32.2198 3.68 32.9065 3.84 33.4931 4.16C34.0931 4.48 34.5531 4.9 34.8731 5.42V3.84H38.2931V15H34.8731V13.42C34.5398 13.94 34.0731 14.36 33.4731 14.68C32.8865 15 32.1998 15.16 31.4131 15.16C30.5065 15.16 29.6798 14.9267 28.9331 14.46C28.1865 13.98 27.5931 13.3067 27.1531 12.44C26.7265 11.56 26.5131 10.5467 26.5131 9.4ZM34.8731 9.42C34.8731 8.56667 34.6331 7.89333 34.1531 7.4C33.6865 6.90667 33.1131 6.66 32.4331 6.66C31.7531 6.66 31.1731 6.90667 30.6931 7.4C30.2265 7.88 29.9931 8.54667 29.9931 9.4C29.9931 10.2533 30.2265 10.9333 30.6931 11.44C31.1731 11.9333 31.7531 12.18 32.4331 12.18C33.1131 12.18 33.6865 11.9333 34.1531 11.44C34.6331 10.9467 34.8731 10.2733 34.8731 9.42ZM44.1873 0.2V15H40.7673V0.2H44.1873ZM52.8858 12.1V15H51.1458C49.9058 15 48.9391 14.7 48.2458 14.1C47.5524 13.4867 47.2058 12.4933 47.2058 11.12V6.68H45.8458V3.84H47.2058V1.12H50.6258V3.84H52.8658V6.68H50.6258V11.16C50.6258 11.4933 50.7058 11.7333 50.8658 11.88C51.0258 12.0267 51.2924 12.1 51.6658 12.1H52.8858ZM61.6508 3.72C62.9308 3.72 63.9574 4.14667 64.7308 5C65.5041 5.84 65.8908 7 65.8908 8.48V15H62.4908V8.94C62.4908 8.19333 62.2974 7.61333 61.9108 7.2C61.5241 6.78667 61.0041 6.58 60.3508 6.58C59.6974 6.58 59.1774 6.78667 58.7908 7.2C58.4041 7.61333 58.2108 8.19333 58.2108 8.94V15H54.7908V0.2H58.2108V5.34C58.5574 4.84667 59.0308 4.45333 59.6308 4.16C60.2308 3.86667 60.9041 3.72 61.6508 3.72ZM79.6673 3.84L72.6673 20.3H68.9873L71.5473 14.62L67.0073 3.84H70.8273L73.4073 10.82L75.9673 3.84H79.6673ZM90.0441 0.96V3.7H84.3241V6.66H88.6041V9.32H84.3241V15H80.9041V0.96H90.0441ZM96.9216 15.16C95.8282 15.16 94.8416 14.9267 93.9616 14.46C93.0949 13.9933 92.4082 13.3267 91.9016 12.46C91.4082 11.5933 91.1616 10.58 91.1616 9.42C91.1616 8.27333 91.4149 7.26667 91.9216 6.4C92.4282 5.52 93.1216 4.84667 94.0016 4.38C94.8816 3.91333 95.8682 3.68 96.9616 3.68C98.0549 3.68 99.0416 3.91333 99.9216 4.38C100.802 4.84667 101.495 5.52 102.002 6.4C102.508 7.26667 102.762 8.27333 102.762 9.42C102.762 10.5667 102.502 11.58 101.982 12.46C101.475 13.3267 100.775 13.9933 99.8816 14.46C99.0016 14.9267 98.0149 15.16 96.9216 15.16ZM96.9216 12.2C97.5749 12.2 98.1282 11.96 98.5816 11.48C99.0482 11 99.2816 10.3133 99.2816 9.42C99.2816 8.52667 99.0549 7.84 98.6016 7.36C98.1616 6.88 97.6149 6.64 96.9616 6.64C96.2949 6.64 95.7416 6.88 95.3016 7.36C94.8616 7.82667 94.6416 8.51333 94.6416 9.42C94.6416 10.3133 94.8549 11 95.2816 11.48C95.7216 11.96 96.2682 12.2 96.9216 12.2ZM109.656 15.16C108.563 15.16 107.576 14.9267 106.696 14.46C105.829 13.9933 105.143 13.3267 104.636 12.46C104.143 11.5933 103.896 10.58 103.896 9.42C103.896 8.27333 104.149 7.26667 104.656 6.4C105.163 5.52 105.856 4.84667 106.736 4.38C107.616 3.91333 108.603 3.68 109.696 3.68C110.789 3.68 111.776 3.91333 112.656 4.38C113.536 4.84667 114.229 5.52 114.736 6.4C115.243 7.26667 115.496 8.27333 115.496 9.42C115.496 10.5667 115.236 11.58 114.716 12.46C114.209 13.3267 113.509 13.9933 112.616 14.46C111.736 14.9267 110.749 15.16 109.656 15.16ZM109.656 12.2C110.309 12.2 110.863 11.96 111.316 11.48C111.783 11 112.016 10.3133 112.016 9.42C112.016 8.52667 111.789 7.84 111.336 7.36C110.896 6.88 110.349 6.64 109.696 6.64C109.029 6.64 108.476 6.88 108.036 7.36C107.596 7.82667 107.376 8.51333 107.376 9.42C107.376 10.3133 107.589 11 108.016 11.48C108.456 11.96 109.003 12.2 109.656 12.2ZM116.63 9.4C116.63 8.25333 116.844 7.24667 117.27 6.38C117.71 5.51333 118.304 4.84667 119.05 4.38C119.797 3.91333 120.63 3.68 121.55 3.68C122.284 3.68 122.95 3.83333 123.55 4.14C124.164 4.44667 124.644 4.86 124.99 5.38V0.2H128.41V15H124.99V13.4C124.67 13.9333 124.21 14.36 123.61 14.68C123.024 15 122.337 15.16 121.55 15.16C120.63 15.16 119.797 14.9267 119.05 14.46C118.304 13.98 117.71 13.3067 117.27 12.44C116.844 11.56 116.63 10.5467 116.63 9.4ZM124.99 9.42C124.99 8.56667 124.75 7.89333 124.27 7.4C123.804 6.90667 123.23 6.66 122.55 6.66C121.87 6.66 121.29 6.90667 120.81 7.4C120.344 7.88 120.11 8.54667 120.11 9.4C120.11 10.2533 120.344 10.9333 120.81 11.44C121.29 11.9333 121.87 12.18 122.55 12.18C123.23 12.18 123.804 11.9333 124.27 11.44C124.75 10.9467 124.99 10.2733 124.99 9.42Z" fill="white"/>
</svg>
